<svg width="21" height="20" viewBox="0 0 21 20" fill="none" xmlns="http://www.w3.org/2000/svg">
<path d="M12.4814 6.98254C12.6153 7.39457 12.9994 7.67395 13.4326 7.67395H20.249L14.7344 11.6808C14.3841 11.9354 14.2374 12.3861 14.3711 12.798L16.4775 19.2814L10.9629 15.2745C10.6124 15.0199 10.1376 15.0199 9.78711 15.2745L4.27246 19.2814L6.37891 12.798C6.51258 12.3861 6.36592 11.9354 6.01562 11.6808L0.500977 7.67395H7.31738C7.75061 7.67395 8.13468 7.39456 8.26855 6.98254L10.375 0.500122L12.4814 6.98254Z" fill="#FAC515"/>
<path d="M12.4814 6.98254C12.6153 7.39457 12.9994 7.67395 13.4326 7.67395H20.249L14.7344 11.6808C14.3841 11.9354 14.2374 12.3861 14.3711 12.798L16.4775 19.2814L10.9629 15.2745C10.6124 15.0199 10.1376 15.0199 9.78711 15.2745L4.27246 19.2814L6.37891 12.798C6.51258 12.3861 6.36592 11.9354 6.01562 11.6808L0.500977 7.67395H7.31738C7.75061 7.67395 8.13468 7.39456 8.26855 6.98254L10.375 0.500122L12.4814 6.98254Z" stroke="#181D27"/>
<path d="M12.4814 6.98254C12.6153 7.39457 12.9994 7.67395 13.4326 7.67395H20.249L14.7344 11.6808C14.3841 11.9354 14.2374 12.3861 14.3711 12.798L16.4775 19.2814L10.9629 15.2745C10.6124 15.0199 10.1376 15.0199 9.78711 15.2745L4.27246 19.2814L6.37891 12.798C6.51258 12.3861 6.36592 11.9354 6.01562 11.6808L0.500977 7.67395H7.31738C7.75061 7.67395 8.13468 7.39456 8.26855 6.98254L10.375 0.500122L12.4814 6.98254Z" stroke="#181D27"/>
</svg>
