<svg width="20" height="20" viewBox="0 0 20 20" fill="none" xmlns="http://www.w3.org/2000/svg">
<g clip-path="url(#clip0_325_55)">
<path d="M3.75033 18.3333V14.1667M3.75033 5.83332V1.66666M1.66699 3.74999H5.83366M1.66699 16.25H5.83366M10.8337 2.49999L9.38851 6.25738C9.1535 6.8684 9.036 7.17391 8.85327 7.43089C8.69132 7.65865 8.49232 7.85765 8.26456 8.0196C8.00758 8.20233 7.70207 8.31983 7.09104 8.55484L3.33366 9.99999L7.09104 11.4451C7.70207 11.6801 8.00758 11.7977 8.26456 11.9804C8.49232 12.1423 8.69132 12.3413 8.85327 12.5691C9.036 12.8261 9.1535 13.1316 9.38851 13.7426L10.8337 17.5L12.2788 13.7426C12.5138 13.1316 12.6313 12.8261 12.8141 12.5691C12.976 12.3413 13.175 12.1423 13.4028 11.9804C13.6597 11.7977 13.9652 11.6801 14.5763 11.4451L18.3337 9.99999L14.5763 8.55484C13.9652 8.31983 13.6597 8.20233 13.4028 8.0196C13.175 7.85765 12.976 7.65866 12.8141 7.4309C12.6313 7.17391 12.5138 6.8684 12.2788 6.25737L10.8337 2.49999Z" stroke="#32D583" stroke-width="1.5" stroke-linecap="round" stroke-linejoin="round"/>
</g>
<defs>
<clipPath id="clip0_325_55">
<rect width="20" height="20" fill="white"/>
</clipPath>
</defs>
</svg>
