<svg width="17" height="17" viewBox="0 0 17 17" fill="none" xmlns="http://www.w3.org/2000/svg">
<path d="M11.0002 11V6.00004M11.0002 6.00004H6.00015M11.0002 6.00004L6.00016 11M5 16H12C13.4001 16 14.1002 16 14.635 15.7275C15.1054 15.4878 15.4878 15.1054 15.7275 14.635C16 14.1002 16 13.4001 16 12V5C16 3.59987 16 2.8998 15.7275 2.36502C15.4878 1.89462 15.1054 1.51217 14.635 1.27248C14.1002 1 13.4001 1 12 1H5C3.59987 1 2.8998 1 2.36502 1.27248C1.89462 1.51217 1.51217 1.89462 1.27248 2.36502C1 2.8998 1 3.59987 1 5V12C1 13.4001 1 14.1002 1.27248 14.635C1.51217 15.1054 1.89462 15.4878 2.36502 15.7275C2.8998 16 3.59987 16 5 16Z" stroke="white" stroke-width="2" stroke-linecap="round" stroke-linejoin="round"/>
</svg>
