<svg width="20" height="20" viewBox="0 0 20 20" fill="none" xmlns="http://www.w3.org/2000/svg">
<g clip-path="url(#clip0_2116_13610)">
<path d="M11.7081 5.00008C12.522 5.15889 13.27 5.55696 13.8564 6.14336C14.4428 6.72976 14.8409 7.4778 14.9997 8.29175M11.7081 1.66675C13.3991 1.85461 14.976 2.61189 16.1799 3.81425C17.3838 5.01661 18.1431 6.59259 18.3331 8.28341M8.52221 11.5526C7.52089 10.5513 6.73023 9.41912 6.15024 8.21111C6.10035 8.1072 6.0754 8.05524 6.05624 7.9895C5.98813 7.75587 6.03705 7.46899 6.17873 7.27113C6.2186 7.21546 6.26623 7.16783 6.36149 7.07256C6.65283 6.78123 6.79849 6.63556 6.89373 6.48908C7.25289 5.93667 7.25289 5.22452 6.89373 4.67211C6.79849 4.52563 6.65283 4.37996 6.36149 4.08862L6.1991 3.92623C5.75623 3.48336 5.53479 3.26192 5.29697 3.14164C4.82401 2.90241 4.26545 2.90241 3.79249 3.14164C3.55467 3.26192 3.33323 3.48336 2.89036 3.92623L2.759 4.05759C2.31765 4.49894 2.09697 4.71962 1.92843 5.01964C1.74142 5.35257 1.60695 5.86964 1.60809 6.25149C1.60911 6.59562 1.67586 6.8308 1.80937 7.30117C2.52684 9.829 3.88057 12.2143 5.87056 14.2043C7.86054 16.1943 10.2458 17.548 12.7737 18.2655C13.244 18.399 13.4792 18.4657 13.8234 18.4668C14.2052 18.4679 14.7223 18.3334 15.0552 18.1464C15.3552 17.9779 15.5759 17.7572 16.0173 17.3158L16.1486 17.1845C16.5915 16.7416 16.8129 16.5202 16.9332 16.2824C17.1724 15.8094 17.1724 15.2508 16.9332 14.7779C16.8129 14.5401 16.5915 14.3186 16.1486 13.8757L15.9862 13.7134C15.6949 13.422 15.5492 13.2763 15.4027 13.1811C14.8503 12.8219 14.1382 12.8219 13.5858 13.1811C13.4393 13.2763 13.2936 13.422 13.0023 13.7134C12.907 13.8086 12.8594 13.8562 12.8037 13.8961C12.6059 14.0378 12.319 14.0867 12.0853 14.0186C12.0196 13.9994 11.9676 13.9745 11.8637 13.9246C10.6557 13.3446 9.52352 12.554 8.52221 11.5526Z" stroke="#717680" stroke-width="2" stroke-linecap="round" stroke-linejoin="round"/>
</g>
<defs>
<clipPath id="clip0_2116_13610">
<rect width="20" height="20" fill="white"/>
</clipPath>
</defs>
</svg>
