<svg width="36" height="36" viewBox="0 0 36 36" fill="none" xmlns="http://www.w3.org/2000/svg">
<path d="M0 1.2C0 0.537259 0.537258 0 1.2 0H34.8C35.4627 0 36 0.537258 36 1.2V34.8C36 35.4627 35.4627 36 34.8 36H1.2C0.537259 36 0 35.4627 0 34.8V1.2Z" fill="#12B76A"/>
<path d="M16 0H20V36H16V0Z" fill="white"/>
<g filter="url(#filter0_d_2034_987)">
<mask id="mask0_2034_987" style="mask-type:alpha" maskUnits="userSpaceOnUse" x="9" y="9" width="19" height="19">
<path d="M26.7706 20.5614C25.4171 25.3441 20.4427 28.1241 15.66 26.7705C10.8773 25.417 8.09734 20.4426 9.45086 15.6599C10.8044 10.8772 15.7788 8.09724 20.5615 9.45076C25.3442 10.8043 28.1242 15.7787 26.7706 20.5614Z" fill="#D9D9D9"/>
</mask>
<g mask="url(#mask0_2034_987)">
<path d="M20.6131 15.6121L17.2198 14.6518L14.6829 17.1408L15.5393 20.59L18.9326 21.5503L21.4695 19.0614L20.6131 15.6121Z" fill="#05603A"/>
<path d="M10.4334 12.731L7.04015 11.7707L4.50325 14.2597L5.35963 17.7089L8.75292 18.6692L11.2898 16.1803L10.4334 12.731Z" fill="#05603A"/>
<path d="M18.0435 5.2635L14.6503 4.3032L12.1134 6.79215L12.9697 10.2414L16.363 11.2017L18.8999 8.71276L18.0435 5.2635Z" fill="#05603A"/>
<path d="M28.2232 8.14632L24.8299 7.18602L22.293 9.67497L23.1494 13.1242L26.5427 14.0845L29.0796 11.5956L28.2232 8.14632Z" fill="#05603A"/>
<path d="M30.7913 18.4932L27.3981 17.5329L24.8612 20.0219L25.7175 23.4712L29.1108 24.4315L31.6477 21.9425L30.7913 18.4932Z" fill="#05603A"/>
<path d="M23.1805 25.9591L19.7872 24.9987L17.2503 27.4877L18.1067 30.937L21.5 31.8973L24.0369 29.4083L23.1805 25.9591Z" fill="#05603A"/>
<path d="M13.0023 23.0796L9.609 22.1193L7.07209 24.6083L7.92848 28.0575L11.3218 29.0178L13.8587 26.5289L13.0023 23.0796Z" fill="#05603A"/>
<path d="M22.2938 9.67341L18.9005 8.71311L16.3636 11.2021L17.22 14.6513L20.6133 15.6116L23.1502 13.1227L22.2938 9.67341Z" fill="white"/>
<path d="M22.5332 9.44017L22.5741 9.60337L23.4295 13.0525L23.4699 13.2132L23.3513 13.329L20.8152 15.8183L20.6949 15.936L16.9779 14.884L16.9382 14.7211L16.0816 11.2717L16.0413 11.111L16.1599 10.9952L18.697 8.50617L18.8162 8.38825L22.5332 9.44017ZM16.6824 11.2924L17.4589 14.4182L20.5294 15.2872L22.8277 13.0315L22.0523 9.90596L18.9818 9.03702L16.6824 11.2924Z" fill="#05603A"/>
<path d="M12.1131 6.79229L8.71984 5.83199L6.18293 8.32094L7.03932 11.7702L10.4326 12.7305L12.9695 10.2415L12.1131 6.79229Z" fill="#A6F4C5"/>
<path d="M24.8629 20.0203L21.4696 19.06L18.9327 21.549L19.7891 24.9983L23.1824 25.9586L25.7193 23.4696L24.8629 20.0203Z" fill="white"/>
<path d="M25.1031 19.7888L25.1439 19.952L25.9994 23.4012L26.0397 23.5619L25.9211 23.6776L23.385 26.167L23.2648 26.2846L19.5477 25.2327L19.508 25.0698L18.6515 21.6203L18.6111 21.4596L18.7297 21.3438L21.2669 18.8548L21.3861 18.7369L25.1031 19.7888ZM19.2522 21.641L20.0287 24.7669L23.0992 25.6358L25.3975 23.3801L24.6221 20.2546L21.5516 19.3856L19.2522 21.641Z" fill="#05603A"/>
<path d="M17.2518 27.4895L13.8585 26.5292L11.3216 29.0182L12.178 32.4675L15.5713 33.4278L18.1082 30.9388L17.2518 27.4895Z" fill="#A6F4C5"/>
<path d="M32.472 12.5545L29.0787 11.5942L26.5418 14.0832L27.3982 17.5324L30.7915 18.4927L33.3284 16.0038L32.472 12.5545Z" fill="#A6F4C5"/>
<path d="M14.6822 17.1409L11.2889 16.1806L8.75203 18.6696L9.60841 22.1188L13.0017 23.0791L15.5386 20.5902L14.6822 17.1409Z" fill="white"/>
<path d="M14.9231 16.9094L14.9639 17.0726L15.8194 20.5217L15.8598 20.6824L15.7412 20.7982L13.2051 23.2875L13.0848 23.4051L9.36781 22.3532L9.32809 22.1903L8.47152 18.7409L8.43119 18.5802L8.54976 18.4644L11.0869 15.9754L11.2061 15.8574L14.9231 16.9094ZM9.07227 18.7616L9.84879 21.8874L12.9193 22.7564L15.2176 20.5007L14.4422 17.3752L11.3717 16.5062L9.07227 18.7616Z" fill="#05603A"/>
<path d="M16.3629 11.2022L12.9696 10.2419L10.4327 12.7309L11.2891 16.1801L14.6824 17.1404L17.2193 14.6515L16.3629 11.2022Z" fill="white"/>
<path d="M16.6038 10.9707L16.6446 11.1339L17.5001 14.583L17.5404 14.7437L17.4219 14.8595L14.8858 17.3488L14.7655 17.4664L11.0485 16.4145L11.0088 16.2516L10.1522 12.8022L10.1119 12.6414L10.2304 12.5257L12.7676 10.0367L12.8868 9.91874L16.6038 10.9707ZM10.7529 12.8229L11.5295 15.9487L14.5999 16.8177L16.8982 14.562L16.1228 11.4364L13.0523 10.5675L10.7529 12.8229Z" fill="#05603A"/>
<path d="M26.5426 14.0816L23.1493 13.1213L20.6124 15.6103L21.4688 19.0595L24.862 20.0198L27.399 17.5309L26.5426 14.0816Z" fill="white"/>
<path d="M26.7828 13.8501L26.8236 14.0133L27.679 17.4624L27.7194 17.6232L27.6008 17.7389L25.0647 20.2283L24.9444 20.3459L21.2274 19.294L21.1877 19.1311L20.3311 15.6816L20.2908 15.5209L20.4094 15.4051L22.9466 12.9161L23.0657 12.7982L26.7828 13.8501ZM20.9319 15.7023L21.7084 18.8282L24.7789 19.6971L27.0772 17.4414L26.3018 14.3159L23.2313 13.4469L20.9319 15.7023Z" fill="#05603A"/>
<path d="M23.9737 3.7364L20.5804 2.7761L18.0435 5.26505L18.8999 8.71431L22.2932 9.67461L24.8301 7.18566L23.9737 3.7364Z" fill="white"/>
<path d="M18.9317 21.5508L15.5384 20.5905L13.0015 23.0795L13.8579 26.5287L17.2512 27.489L19.7881 25.0001L18.9317 21.5508Z" fill="white"/>
<path d="M19.1726 21.3176L19.2135 21.4808L20.0689 24.9299L20.1093 25.0907L19.9907 25.2064L17.4546 27.6958L17.3343 27.8134L13.6173 26.7615L13.5776 26.5986L12.721 23.1491L12.6807 22.9884L12.7993 22.8726L15.3364 20.3836L15.4556 20.2657L19.1726 21.3176ZM13.3218 23.1698L14.0983 26.2957L17.1688 27.1646L19.4671 24.9089L18.6917 21.7834L15.6212 20.9144L13.3218 23.1698Z" fill="#05603A"/>
<path d="M8.75277 18.6697L5.35949 17.7094L2.82258 20.1984L3.67897 23.6476L7.07225 24.6079L9.60916 22.119L8.75277 18.6697Z" fill="white"/>
<path d="M29.1114 24.4303L25.7181 23.47L23.1812 25.9589L24.0376 29.4082L27.4309 30.3685L29.9678 27.8795L29.1114 24.4303Z" fill="white"/>
</g>
</g>
<defs>
<filter id="filter0_d_2034_987" x="9.1084" y="9.10835" width="24.0046" height="24.0046" filterUnits="userSpaceOnUse" color-interpolation-filters="sRGB">
<feFlood flood-opacity="0" result="BackgroundImageFix"/>
<feColorMatrix in="SourceAlpha" type="matrix" values="0 0 0 0 0 0 0 0 0 0 0 0 0 0 0 0 0 0 127 0" result="hardAlpha"/>
<feOffset dx="5" dy="5"/>
<feGaussianBlur stdDeviation="0.5"/>
<feComposite in2="hardAlpha" operator="out"/>
<feColorMatrix type="matrix" values="0 0 0 0 0.144231 0 0 0 0 0.0624075 0 0 0 0 0.0624075 0 0 0 0.25 0"/>
<feBlend mode="normal" in2="BackgroundImageFix" result="effect1_dropShadow_2034_987"/>
<feBlend mode="normal" in="SourceGraphic" in2="effect1_dropShadow_2034_987" result="shape"/>
</filter>
</defs>
</svg>
