<svg width="21" height="20" viewBox="0 0 21 20" fill="none" xmlns="http://www.w3.org/2000/svg">
<path d="M12.4814 6.98242C12.6153 7.39444 12.9994 7.67383 13.4326 7.67383H20.249L14.7344 11.6807C14.3841 11.9353 14.2374 12.386 14.3711 12.7979L16.4775 19.2812L10.9629 15.2744C10.6124 15.0198 10.1376 15.0198 9.78711 15.2744L4.27246 19.2812L6.37891 12.7979C6.51258 12.386 6.36592 11.9353 6.01562 11.6807L0.500977 7.67383H7.31738C7.75061 7.67383 8.13468 7.39444 8.26855 6.98242L10.375 0.5L12.4814 6.98242Z" fill="#FAC515"/>
<path d="M12.4814 6.98242C12.6153 7.39444 12.9994 7.67383 13.4326 7.67383H20.249L14.7344 11.6807C14.3841 11.9353 14.2374 12.386 14.3711 12.7979L16.4775 19.2812L10.9629 15.2744C10.6124 15.0198 10.1376 15.0198 9.78711 15.2744L4.27246 19.2812L6.37891 12.7979C6.51258 12.386 6.36592 11.9353 6.01562 11.6807L0.500977 7.67383H7.31738C7.75061 7.67383 8.13468 7.39444 8.26855 6.98242L10.375 0.5L12.4814 6.98242Z" stroke="#181D27"/>
<path d="M12.4814 6.98242C12.6153 7.39444 12.9994 7.67383 13.4326 7.67383H20.249L14.7344 11.6807C14.3841 11.9353 14.2374 12.386 14.3711 12.7979L16.4775 19.2812L10.9629 15.2744C10.6124 15.0198 10.1376 15.0198 9.78711 15.2744L4.27246 19.2812L6.37891 12.7979C6.51258 12.386 6.36592 11.9353 6.01562 11.6807L0.500977 7.67383H7.31738C7.75061 7.67383 8.13468 7.39444 8.26855 6.98242L10.375 0.5L12.4814 6.98242Z" stroke="#181D27"/>
</svg>
