<svg width="16" height="16" viewBox="0 0 16 16" fill="none" xmlns="http://www.w3.org/2000/svg">
<path d="M2.99992 14.6667V11.3333M2.99992 4.66667V1.33334M1.33325 3H4.66659M1.33325 13H4.66659M8.66658 2L7.51047 5.00591C7.32246 5.49473 7.22845 5.73914 7.08227 5.94473C6.95271 6.12693 6.79352 6.28613 6.61131 6.41569C6.40572 6.56187 6.16131 6.65588 5.67249 6.84388L2.66659 8L5.67249 9.15612C6.16131 9.34413 6.40572 9.43813 6.61131 9.58432C6.79352 9.71388 6.95271 9.87307 7.08227 10.0553C7.22845 10.2609 7.32246 10.5053 7.51047 10.9941L8.66659 14L9.8227 10.9941C10.0107 10.5053 10.1047 10.2609 10.2509 10.0553C10.3805 9.87307 10.5397 9.71388 10.7219 9.58432C10.9274 9.43813 11.1719 9.34413 11.6607 9.15612L14.6666 8L11.6607 6.84388C11.1719 6.65588 10.9274 6.56187 10.7219 6.41569C10.5397 6.28613 10.3805 6.12693 10.2509 5.94473C10.1047 5.73914 10.0107 5.49473 9.8227 5.00591L8.66658 2Z" stroke="#181D27" stroke-width="1.5" stroke-linecap="round" stroke-linejoin="round"/>
</svg>
